<?xml version="1.0" encoding="utf-8"?>
<!-- Generator: Adobe Illustrator 26.5.0, SVG Export Plug-In . SVG Version: 6.00 Build 0)  -->
<svg version="1.1" id="Layer_1" xmlns="http://www.w3.org/2000/svg" xmlns:xlink="http://www.w3.org/1999/xlink" x="0px" y="0px"
	 viewBox="0 0 30 30" style="enable-background:new 0 0 30 30;" xml:space="preserve">
<style type="text/css">
	.st0{fill:#231F20;}
</style>
<path class="st0" d="M27.5,24.6l-5.4-5.4c1.3-1.8,1.9-3.9,1.9-6.3c0-6.1-4.9-11-11-11C6.9,2,2,7,2,13c0,6.1,4.9,11,11,11
	c2.3,0,4.5-0.7,6.3-1.9l5.4,5.4c0.4,0.4,0.9,0.6,1.5,0.6c0.6,0,1.1-0.2,1.4-0.6c0.4-0.4,0.6-0.9,0.6-1.5
	C28,25.4,27.9,25.1,27.5,24.6z M13,20c-3.8,0-7-3.2-7-7c0-3.8,3.2-7,7-7c3.8,0,7,3.2,7,7C20,16.8,16.8,20,13,20z"/>
</svg>
