<?xml version="1.0" encoding="utf-8"?>
<!-- Generator: Adobe Illustrator 26.5.0, SVG Export Plug-In . SVG Version: 6.00 Build 0)  -->
<svg version="1.1" id="Layer_2_00000164502790582129942700000011061039058036097172_"
	 xmlns="http://www.w3.org/2000/svg" xmlns:xlink="http://www.w3.org/1999/xlink" x="0px" y="0px" viewBox="0 0 213.7 38.8"
	 style="enable-background:new 0 0 213.7 38.8;" xml:space="preserve">
<g>
	<path d="M21.1,9.8v28.3h-4.4v-12H4.4v12H0V9.8h4.4v12h12.3v-12C16.7,9.8,21.1,9.8,21.1,9.8z"/>
	<path d="M25.2,24c0-8.1,6.6-14.7,14.6-14.7c8.1,0,14.7,6.6,14.7,14.7c0,8-6.6,14.6-14.7,14.6S25.2,32,25.2,24z M50,24
		c0-5.6-4.6-10.2-10.2-10.2c-5.6,0-10.1,4.6-10.1,10.2s4.6,10.1,10.1,10.1S50,29.6,50,24z"/>
	<path d="M58.3,27.4V9.8h4.5v17.6c0,3.9,2.8,6.8,6.2,6.8s6.3-2.9,6.3-6.8V9.8h4.5v17.6c0,6.5-4.7,11.3-10.7,11.3
		S58.3,33.9,58.3,27.4z"/>
	<path d="M83.3,33.2l3.5-2.5c1.3,2.2,3.6,3.5,6.3,3.5c3.2,0,5.6-1.5,5.6-3.7c0-2.6-3.7-4.2-7-5.6c-3.3-1.5-7-3.2-7-7.6
		c0-4.6,4-7.9,9.1-7.9c4,0,7.1,2,8.2,5.1l-3.3,2.3c-0.9-1.9-2.8-3-4.9-3c-2.6,0-4.7,1.6-4.7,3.6c0,2.2,2.6,3,6.1,4.5
		c4.5,2,8,4.1,8,8.6c0,5-4.4,8.3-10.1,8.3C88.4,38.6,84.9,36.5,83.3,33.2z"/>
	<path d="M111.4,14.2v7.3h10.7v4.4h-10.7v7.8h12.4v4.4h-16.9V9.8h16.9v4.4H111.4z"/>
	<path d="M127.1,24c0-8,6.7-14.7,14.6-14.7c3.7,0.1,7.1,1.6,9.8,4.3l-2.6,3.5c-2-2-4.6-3.3-7.3-3.3c-5.1,0-10,4.5-10,10.2
		s5,10.1,10.1,10.1c2.9,0,5.4-1.4,7.3-3.4l2.6,3.6c-2.4,2.4-5.6,4.3-9.8,4.3C133.8,38.6,127.1,32,127.1,24z"/>
	<path d="M152.6,24c0-8.1,6.6-14.7,14.6-14.7c8.1,0,14.7,6.6,14.7,14.7c0,8-6.6,14.6-14.7,14.6C159.1,38.6,152.6,32,152.6,24z
		 M177.4,24c0-5.6-4.6-10.2-10.2-10.2s-10.1,4.6-10.1,10.2s4.6,10.1,10.1,10.1S177.4,29.6,177.4,24z"/>
	<path d="M213.7,9.2v29h-4.4V22.4l-9.4,15.2l0,0l-9.4-15.3V38h-4.4V9l3.8,0.1l10.1,19L210.1,9h3.6V9.2z"/>
</g>
<circle cx="37.4" cy="21.7" r="4.4"/>
<circle cx="172.2" cy="23.5" r="4.2"/>
<rect x="37.8" width="3.9" height="10.9"/>
<rect x="40.9" y="5.7" transform="matrix(0.3957 -0.9184 0.9184 0.3957 20.8336 47.0453)" width="10.6" height="3.9"/>
<rect x="32" y="2.4" transform="matrix(0.9184 -0.3957 0.3957 0.9184 -0.269 14.0667)" width="3.9" height="10.6"/>
<rect x="47.8" y="10" transform="matrix(0.6362 -0.7716 0.7716 0.6362 9.6506 44.2977)" width="8" height="3.9"/>
<rect x="26.8" y="8" transform="matrix(0.7716 -0.6362 0.6362 0.7716 -1.0409 21.0528)" width="3.9" height="8"/>
<rect x="165.4" y="0.3" width="3.9" height="10.9"/>
<rect x="168.5" y="6.1" transform="matrix(0.3957 -0.9184 0.9184 0.3957 97.6619 164.4196)" width="10.6" height="3.9"/>
<rect x="159.5" y="2.6" transform="matrix(0.9184 -0.3957 0.3957 0.9184 10.0504 64.549)" width="3.9" height="10.6"/>
<rect x="175.3" y="10.4" transform="matrix(0.6362 -0.7716 0.7716 0.6362 55.753 142.8463)" width="8" height="3.9"/>
<rect x="154.4" y="8.2" transform="matrix(0.7716 -0.6362 0.6362 0.7716 27.9313 102.2248)" width="3.9" height="8"/>
</svg>
